<svg width="19" height="19" viewBox="0 0 19 19" fill="none" xmlns="http://www.w3.org/2000/svg">
<path fill-rule="evenodd" clip-rule="evenodd" d="M7.42543 2.06818C4.53989 2.06818 2.20071 4.26606 2.20071 6.97727C2.20071 9.68849 4.53989 11.8864 7.42543 11.8864C10.311 11.8864 12.6501 9.68849 12.6501 6.97727C12.6501 4.26606 10.311 2.06818 7.42543 2.06818ZM0.265625 6.97727C0.265625 3.2619 3.47118 0.25 7.42543 0.25C11.3797 0.25 14.5852 3.2619 14.5852 6.97727C14.5852 10.6926 11.3797 13.7045 7.42543 13.7045C3.47118 13.7045 0.265625 10.6926 0.265625 6.97727Z" fill="white"/>
<path fill-rule="evenodd" clip-rule="evenodd" d="M11.477 10.6306C11.8253 10.2442 12.3901 10.2442 12.7384 10.6306L18.5356 17.0611C18.8839 17.4474 18.8839 18.0738 18.5356 18.4602C18.1873 18.8465 17.6226 18.8465 17.2743 18.4602L11.477 12.0297C11.1287 11.6433 11.1287 11.0169 11.477 10.6306Z" fill="white"/>
</svg>
